<svg xmlns="http://www.w3.org/2000/svg" width="1800" height="1180" viewBox="0 0 1800 1180">
<rect width="100%" height="100%" fill="#f4efe9"/>
<text x="24" y="40" font-family="monospace" font-size="26" font-weight="700" fill="#111">ПЕРЕЛОМ — эталон скелета. Все кости одной длины во всех позах.</text>
<g>
<line x1="150.0" y1="232.0" x2="151.0" y2="202.0" stroke="#1a1a1f" stroke-width="30" stroke-linecap="round"/>
<line x1="151.0" y1="202.0" x2="152.0" y2="180.0" stroke="#1a1a1f" stroke-width="26" stroke-linecap="round"/>
<line x1="152.0" y1="180.0" x2="156.0" y2="162.0" stroke="#1a1a1f" stroke-width="18" stroke-linecap="round"/>
<line x1="152.0" y1="180.0" x2="171.0" y2="208.0" stroke="#1a1a1f" stroke-width="13" stroke-linecap="round"/>
<line x1="171.0" y1="208.0" x2="174.0" y2="176.0" stroke="#1a1a1f" stroke-width="13" stroke-linecap="round"/>
<line x1="152.0" y1="180.0" x2="129.0" y2="205.0" stroke="#1a1a1f" stroke-width="13" stroke-linecap="round"/>
<line x1="129.0" y1="205.0" x2="146.0" y2="178.0" stroke="#1a1a1f" stroke-width="13" stroke-linecap="round"/>
<line x1="150.0" y1="232.0" x2="169.0" y2="270.0" stroke="#1a1a1f" stroke-width="16" stroke-linecap="round"/>
<line x1="169.0" y1="270.0" x2="180.0" y2="310.0" stroke="#1a1a1f" stroke-width="16" stroke-linecap="round"/>
<line x1="150.0" y1="232.0" x2="134.0" y2="272.0" stroke="#1a1a1f" stroke-width="16" stroke-linecap="round"/>
<line x1="134.0" y1="272.0" x2="118.0" y2="310.0" stroke="#1a1a1f" stroke-width="16" stroke-linecap="round"/>
<circle cx="156.0" cy="162.0" r="15" fill="#1a1a1f"/>
<circle cx="150.0" cy="232.0" r="3" fill="#d81e3c"/>
<circle cx="151.0" cy="202.0" r="3" fill="#d81e3c"/>
<circle cx="152.0" cy="180.0" r="3" fill="#d81e3c"/>
<circle cx="156.0" cy="162.0" r="3" fill="#d81e3c"/>
<circle cx="171.0" cy="208.0" r="3" fill="#d81e3c"/>
<circle cx="174.0" cy="176.0" r="3" fill="#d81e3c"/>
<circle cx="129.0" cy="205.0" r="3" fill="#d81e3c"/>
<circle cx="146.0" cy="178.0" r="3" fill="#d81e3c"/>
<circle cx="169.0" cy="270.0" r="3" fill="#d81e3c"/>
<circle cx="180.0" cy="310.0" r="3" fill="#d81e3c"/>
<circle cx="134.0" cy="272.0" r="3" fill="#d81e3c"/>
<circle cx="118.0" cy="310.0" r="3" fill="#d81e3c"/>
<line x1="40" y1="310" x2="260" y2="310" stroke="#c3b8ab" stroke-width="2"/>
<text x="150" y="336" text-anchor="middle" font-family="monospace" font-size="18" fill="#5c5148">idle</text>
</g>
<g>
<line x1="450.0" y1="236.0" x2="449.0" y2="206.0" stroke="#1a1a1f" stroke-width="30" stroke-linecap="round"/>
<line x1="449.0" y1="206.0" x2="450.0" y2="184.0" stroke="#1a1a1f" stroke-width="26" stroke-linecap="round"/>
<line x1="450.0" y1="184.0" x2="452.0" y2="166.0" stroke="#1a1a1f" stroke-width="18" stroke-linecap="round"/>
<line x1="450.0" y1="184.0" x2="478.0" y2="204.0" stroke="#1a1a1f" stroke-width="13" stroke-linecap="round"/>
<line x1="478.0" y1="204.0" x2="466.0" y2="174.0" stroke="#1a1a1f" stroke-width="13" stroke-linecap="round"/>
<line x1="450.0" y1="184.0" x2="416.0" y2="179.0" stroke="#1a1a1f" stroke-width="13" stroke-linecap="round"/>
<line x1="416.0" y1="179.0" x2="448.0" y2="174.0" stroke="#1a1a1f" stroke-width="13" stroke-linecap="round"/>
<line x1="450.0" y1="236.0" x2="478.0" y2="269.0" stroke="#1a1a1f" stroke-width="16" stroke-linecap="round"/>
<line x1="478.0" y1="269.0" x2="478.0" y2="310.0" stroke="#1a1a1f" stroke-width="16" stroke-linecap="round"/>
<line x1="450.0" y1="236.0" x2="442.0" y2="278.0" stroke="#1a1a1f" stroke-width="16" stroke-linecap="round"/>
<line x1="442.0" y1="278.0" x2="416.0" y2="310.0" stroke="#1a1a1f" stroke-width="16" stroke-linecap="round"/>
<circle cx="452.0" cy="166.0" r="15" fill="#1a1a1f"/>
<circle cx="450.0" cy="236.0" r="3" fill="#d81e3c"/>
<circle cx="449.0" cy="206.0" r="3" fill="#d81e3c"/>
<circle cx="450.0" cy="184.0" r="3" fill="#d81e3c"/>
<circle cx="452.0" cy="166.0" r="3" fill="#d81e3c"/>
<circle cx="478.0" cy="204.0" r="3" fill="#d81e3c"/>
<circle cx="466.0" cy="174.0" r="3" fill="#d81e3c"/>
<circle cx="416.0" cy="179.0" r="3" fill="#d81e3c"/>
<circle cx="448.0" cy="174.0" r="3" fill="#d81e3c"/>
<circle cx="478.0" cy="269.0" r="3" fill="#d81e3c"/>
<circle cx="478.0" cy="310.0" r="3" fill="#d81e3c"/>
<circle cx="442.0" cy="278.0" r="3" fill="#d81e3c"/>
<circle cx="416.0" cy="310.0" r="3" fill="#d81e3c"/>
<line x1="340" y1="310" x2="560" y2="310" stroke="#c3b8ab" stroke-width="2"/>
<text x="450" y="336" text-anchor="middle" font-family="monospace" font-size="18" fill="#5c5148">guard</text>
</g>
<g>
<line x1="752.0" y1="234.0" x2="754.0" y2="204.0" stroke="#1a1a1f" stroke-width="30" stroke-linecap="round"/>
<line x1="754.0" y1="204.0" x2="756.0" y2="182.0" stroke="#1a1a1f" stroke-width="26" stroke-linecap="round"/>
<line x1="756.0" y1="182.0" x2="762.0" y2="165.0" stroke="#1a1a1f" stroke-width="18" stroke-linecap="round"/>
<line x1="756.0" y1="182.0" x2="773.0" y2="212.0" stroke="#1a1a1f" stroke-width="13" stroke-linecap="round"/>
<line x1="773.0" y1="212.0" x2="794.0" y2="188.0" stroke="#1a1a1f" stroke-width="13" stroke-linecap="round"/>
<line x1="756.0" y1="182.0" x2="733.0" y2="207.0" stroke="#1a1a1f" stroke-width="13" stroke-linecap="round"/>
<line x1="733.0" y1="207.0" x2="750.0" y2="180.0" stroke="#1a1a1f" stroke-width="13" stroke-linecap="round"/>
<line x1="752.0" y1="234.0" x2="776.0" y2="269.0" stroke="#1a1a1f" stroke-width="16" stroke-linecap="round"/>
<line x1="776.0" y1="269.0" x2="782.0" y2="310.0" stroke="#1a1a1f" stroke-width="16" stroke-linecap="round"/>
<line x1="752.0" y1="234.0" x2="743.0" y2="276.0" stroke="#1a1a1f" stroke-width="16" stroke-linecap="round"/>
<line x1="743.0" y1="276.0" x2="720.0" y2="310.0" stroke="#1a1a1f" stroke-width="16" stroke-linecap="round"/>
<circle cx="762.0" cy="165.0" r="15" fill="#1a1a1f"/>
<circle cx="752.0" cy="234.0" r="3" fill="#d81e3c"/>
<circle cx="754.0" cy="204.0" r="3" fill="#d81e3c"/>
<circle cx="756.0" cy="182.0" r="3" fill="#d81e3c"/>
<circle cx="762.0" cy="165.0" r="3" fill="#d81e3c"/>
<circle cx="773.0" cy="212.0" r="3" fill="#d81e3c"/>
<circle cx="794.0" cy="188.0" r="3" fill="#d81e3c"/>
<circle cx="733.0" cy="207.0" r="3" fill="#d81e3c"/>
<circle cx="750.0" cy="180.0" r="3" fill="#d81e3c"/>
<circle cx="776.0" cy="269.0" r="3" fill="#d81e3c"/>
<circle cx="782.0" cy="310.0" r="3" fill="#d81e3c"/>
<circle cx="743.0" cy="276.0" r="3" fill="#d81e3c"/>
<circle cx="720.0" cy="310.0" r="3" fill="#d81e3c"/>
<line x1="640" y1="310" x2="860" y2="310" stroke="#c3b8ab" stroke-width="2"/>
<text x="750" y="336" text-anchor="middle" font-family="monospace" font-size="18" fill="#5c5148">catch</text>
</g>
<g>
<line x1="1048.0" y1="232.0" x2="1046.0" y2="202.0" stroke="#1a1a1f" stroke-width="30" stroke-linecap="round"/>
<line x1="1046.0" y1="202.0" x2="1046.0" y2="180.0" stroke="#1a1a1f" stroke-width="26" stroke-linecap="round"/>
<line x1="1046.0" y1="180.0" x2="1048.0" y2="162.0" stroke="#1a1a1f" stroke-width="18" stroke-linecap="round"/>
<line x1="1046.0" y1="180.0" x2="1040.0" y2="213.0" stroke="#1a1a1f" stroke-width="13" stroke-linecap="round"/>
<line x1="1040.0" y1="213.0" x2="1034.0" y2="182.0" stroke="#1a1a1f" stroke-width="13" stroke-linecap="round"/>
<line x1="1046.0" y1="180.0" x2="1012.0" y2="182.0" stroke="#1a1a1f" stroke-width="13" stroke-linecap="round"/>
<line x1="1012.0" y1="182.0" x2="1044.0" y2="180.0" stroke="#1a1a1f" stroke-width="13" stroke-linecap="round"/>
<line x1="1048.0" y1="232.0" x2="1067.0" y2="270.0" stroke="#1a1a1f" stroke-width="16" stroke-linecap="round"/>
<line x1="1067.0" y1="270.0" x2="1078.0" y2="310.0" stroke="#1a1a1f" stroke-width="16" stroke-linecap="round"/>
<line x1="1048.0" y1="232.0" x2="1032.0" y2="272.0" stroke="#1a1a1f" stroke-width="16" stroke-linecap="round"/>
<line x1="1032.0" y1="272.0" x2="1016.0" y2="310.0" stroke="#1a1a1f" stroke-width="16" stroke-linecap="round"/>
<circle cx="1048.0" cy="162.0" r="15" fill="#1a1a1f"/>
<circle cx="1048.0" cy="232.0" r="3" fill="#d81e3c"/>
<circle cx="1046.0" cy="202.0" r="3" fill="#d81e3c"/>
<circle cx="1046.0" cy="180.0" r="3" fill="#d81e3c"/>
<circle cx="1048.0" cy="162.0" r="3" fill="#d81e3c"/>
<circle cx="1040.0" cy="213.0" r="3" fill="#d81e3c"/>
<circle cx="1034.0" cy="182.0" r="3" fill="#d81e3c"/>
<circle cx="1012.0" cy="182.0" r="3" fill="#d81e3c"/>
<circle cx="1044.0" cy="180.0" r="3" fill="#d81e3c"/>
<circle cx="1067.0" cy="270.0" r="3" fill="#d81e3c"/>
<circle cx="1078.0" cy="310.0" r="3" fill="#d81e3c"/>
<circle cx="1032.0" cy="272.0" r="3" fill="#d81e3c"/>
<circle cx="1016.0" cy="310.0" r="3" fill="#d81e3c"/>
<line x1="940" y1="310" x2="1160" y2="310" stroke="#c3b8ab" stroke-width="2"/>
<text x="1050" y="336" text-anchor="middle" font-family="monospace" font-size="18" fill="#5c5148">windHand</text>
</g>
<g>
<line x1="1354.0" y1="234.0" x2="1358.0" y2="204.0" stroke="#1a1a1f" stroke-width="30" stroke-linecap="round"/>
<line x1="1358.0" y1="204.0" x2="1360.0" y2="182.0" stroke="#1a1a1f" stroke-width="26" stroke-linecap="round"/>
<line x1="1360.0" y1="182.0" x2="1364.0" y2="165.0" stroke="#1a1a1f" stroke-width="18" stroke-linecap="round"/>
<line x1="1360.0" y1="182.0" x2="1374.0" y2="213.0" stroke="#1a1a1f" stroke-width="13" stroke-linecap="round"/>
<line x1="1374.0" y1="213.0" x2="1398.0" y2="192.0" stroke="#1a1a1f" stroke-width="13" stroke-linecap="round"/>
<line x1="1360.0" y1="182.0" x2="1364.0" y2="216.0" stroke="#1a1a1f" stroke-width="13" stroke-linecap="round"/>
<line x1="1364.0" y1="216.0" x2="1334.0" y2="204.0" stroke="#1a1a1f" stroke-width="13" stroke-linecap="round"/>
<line x1="1354.0" y1="234.0" x2="1378.0" y2="270.0" stroke="#1a1a1f" stroke-width="16" stroke-linecap="round"/>
<line x1="1378.0" y1="270.0" x2="1386.0" y2="310.0" stroke="#1a1a1f" stroke-width="16" stroke-linecap="round"/>
<line x1="1354.0" y1="234.0" x2="1342.0" y2="275.0" stroke="#1a1a1f" stroke-width="16" stroke-linecap="round"/>
<line x1="1342.0" y1="275.0" x2="1320.0" y2="310.0" stroke="#1a1a1f" stroke-width="16" stroke-linecap="round"/>
<circle cx="1364.0" cy="165.0" r="15" fill="#1a1a1f"/>
<circle cx="1354.0" cy="234.0" r="3" fill="#d81e3c"/>
<circle cx="1358.0" cy="204.0" r="3" fill="#d81e3c"/>
<circle cx="1360.0" cy="182.0" r="3" fill="#d81e3c"/>
<circle cx="1364.0" cy="165.0" r="3" fill="#d81e3c"/>
<circle cx="1374.0" cy="213.0" r="3" fill="#d81e3c"/>
<circle cx="1398.0" cy="192.0" r="3" fill="#d81e3c"/>
<circle cx="1364.0" cy="216.0" r="3" fill="#d81e3c"/>
<circle cx="1334.0" cy="204.0" r="3" fill="#d81e3c"/>
<circle cx="1378.0" cy="270.0" r="3" fill="#d81e3c"/>
<circle cx="1386.0" cy="310.0" r="3" fill="#d81e3c"/>
<circle cx="1342.0" cy="275.0" r="3" fill="#d81e3c"/>
<circle cx="1320.0" cy="310.0" r="3" fill="#d81e3c"/>
<line x1="1240" y1="310" x2="1460" y2="310" stroke="#c3b8ab" stroke-width="2"/>
<text x="1350" y="336" text-anchor="middle" font-family="monospace" font-size="18" fill="#5c5148">hitHand</text>
</g>
<g>
<line x1="1648.0" y1="230.0" x2="1648.0" y2="200.0" stroke="#1a1a1f" stroke-width="30" stroke-linecap="round"/>
<line x1="1648.0" y1="200.0" x2="1648.0" y2="178.0" stroke="#1a1a1f" stroke-width="26" stroke-linecap="round"/>
<line x1="1648.0" y1="178.0" x2="1652.0" y2="160.0" stroke="#1a1a1f" stroke-width="18" stroke-linecap="round"/>
<line x1="1648.0" y1="178.0" x2="1665.0" y2="208.0" stroke="#1a1a1f" stroke-width="13" stroke-linecap="round"/>
<line x1="1665.0" y1="208.0" x2="1670.0" y2="176.0" stroke="#1a1a1f" stroke-width="13" stroke-linecap="round"/>
<line x1="1648.0" y1="178.0" x2="1630.0" y2="207.0" stroke="#1a1a1f" stroke-width="13" stroke-linecap="round"/>
<line x1="1630.0" y1="207.0" x2="1644.0" y2="178.0" stroke="#1a1a1f" stroke-width="13" stroke-linecap="round"/>
<line x1="1648.0" y1="230.0" x2="1691.0" y2="226.0" stroke="#1a1a1f" stroke-width="16" stroke-linecap="round"/>
<line x1="1691.0" y1="226.0" x2="1672.0" y2="262.0" stroke="#1a1a1f" stroke-width="16" stroke-linecap="round"/>
<line x1="1648.0" y1="230.0" x2="1640.0" y2="272.0" stroke="#1a1a1f" stroke-width="16" stroke-linecap="round"/>
<line x1="1640.0" y1="272.0" x2="1624.0" y2="310.0" stroke="#1a1a1f" stroke-width="16" stroke-linecap="round"/>
<circle cx="1652.0" cy="160.0" r="15" fill="#1a1a1f"/>
<circle cx="1648.0" cy="230.0" r="3" fill="#d81e3c"/>
<circle cx="1648.0" cy="200.0" r="3" fill="#d81e3c"/>
<circle cx="1648.0" cy="178.0" r="3" fill="#d81e3c"/>
<circle cx="1652.0" cy="160.0" r="3" fill="#d81e3c"/>
<circle cx="1665.0" cy="208.0" r="3" fill="#d81e3c"/>
<circle cx="1670.0" cy="176.0" r="3" fill="#d81e3c"/>
<circle cx="1630.0" cy="207.0" r="3" fill="#d81e3c"/>
<circle cx="1644.0" cy="178.0" r="3" fill="#d81e3c"/>
<circle cx="1691.0" cy="226.0" r="3" fill="#d81e3c"/>
<circle cx="1672.0" cy="262.0" r="3" fill="#d81e3c"/>
<circle cx="1640.0" cy="272.0" r="3" fill="#d81e3c"/>
<circle cx="1624.0" cy="310.0" r="3" fill="#d81e3c"/>
<line x1="1540" y1="310" x2="1760" y2="310" stroke="#c3b8ab" stroke-width="2"/>
<text x="1650" y="336" text-anchor="middle" font-family="monospace" font-size="18" fill="#5c5148">windFoot</text>
</g>
<g>
<line x1="146.0" y1="576.0" x2="142.0" y2="546.0" stroke="#1a1a1f" stroke-width="30" stroke-linecap="round"/>
<line x1="142.0" y1="546.0" x2="140.0" y2="524.0" stroke="#1a1a1f" stroke-width="26" stroke-linecap="round"/>
<line x1="140.0" y1="524.0" x2="142.0" y2="506.0" stroke="#1a1a1f" stroke-width="18" stroke-linecap="round"/>
<line x1="140.0" y1="524.0" x2="158.0" y2="553.0" stroke="#1a1a1f" stroke-width="13" stroke-linecap="round"/>
<line x1="158.0" y1="553.0" x2="166.0" y2="522.0" stroke="#1a1a1f" stroke-width="13" stroke-linecap="round"/>
<line x1="140.0" y1="524.0" x2="146.0" y2="558.0" stroke="#1a1a1f" stroke-width="13" stroke-linecap="round"/>
<line x1="146.0" y1="558.0" x2="116.0" y2="546.0" stroke="#1a1a1f" stroke-width="13" stroke-linecap="round"/>
<line x1="146.0" y1="576.0" x2="187.0" y2="589.0" stroke="#1a1a1f" stroke-width="16" stroke-linecap="round"/>
<line x1="187.0" y1="589.0" x2="222.0" y2="568.0" stroke="#1a1a1f" stroke-width="16" stroke-linecap="round"/>
<line x1="146.0" y1="576.0" x2="145.0" y2="619.0" stroke="#1a1a1f" stroke-width="16" stroke-linecap="round"/>
<line x1="145.0" y1="619.0" x2="118.0" y2="650.0" stroke="#1a1a1f" stroke-width="16" stroke-linecap="round"/>
<circle cx="142.0" cy="506.0" r="15" fill="#1a1a1f"/>
<circle cx="146.0" cy="576.0" r="3" fill="#d81e3c"/>
<circle cx="142.0" cy="546.0" r="3" fill="#d81e3c"/>
<circle cx="140.0" cy="524.0" r="3" fill="#d81e3c"/>
<circle cx="142.0" cy="506.0" r="3" fill="#d81e3c"/>
<circle cx="158.0" cy="553.0" r="3" fill="#d81e3c"/>
<circle cx="166.0" cy="522.0" r="3" fill="#d81e3c"/>
<circle cx="146.0" cy="558.0" r="3" fill="#d81e3c"/>
<circle cx="116.0" cy="546.0" r="3" fill="#d81e3c"/>
<circle cx="187.0" cy="589.0" r="3" fill="#d81e3c"/>
<circle cx="222.0" cy="568.0" r="3" fill="#d81e3c"/>
<circle cx="145.0" cy="619.0" r="3" fill="#d81e3c"/>
<circle cx="118.0" cy="650.0" r="3" fill="#d81e3c"/>
<line x1="40" y1="650" x2="260" y2="650" stroke="#c3b8ab" stroke-width="2"/>
<text x="150" y="676" text-anchor="middle" font-family="monospace" font-size="18" fill="#5c5148">hitFoot</text>
</g>
<g>
<line x1="448.0" y1="572.0" x2="448.0" y2="542.0" stroke="#1a1a1f" stroke-width="30" stroke-linecap="round"/>
<line x1="448.0" y1="542.0" x2="448.0" y2="520.0" stroke="#1a1a1f" stroke-width="26" stroke-linecap="round"/>
<line x1="448.0" y1="520.0" x2="450.0" y2="502.0" stroke="#1a1a1f" stroke-width="18" stroke-linecap="round"/>
<line x1="448.0" y1="520.0" x2="425.0" y2="545.0" stroke="#1a1a1f" stroke-width="13" stroke-linecap="round"/>
<line x1="425.0" y1="545.0" x2="452.0" y2="528.0" stroke="#1a1a1f" stroke-width="13" stroke-linecap="round"/>
<line x1="448.0" y1="520.0" x2="466.0" y2="549.0" stroke="#1a1a1f" stroke-width="13" stroke-linecap="round"/>
<line x1="466.0" y1="549.0" x2="440.0" y2="530.0" stroke="#1a1a1f" stroke-width="13" stroke-linecap="round"/>
<line x1="448.0" y1="572.0" x2="467.0" y2="610.0" stroke="#1a1a1f" stroke-width="16" stroke-linecap="round"/>
<line x1="467.0" y1="610.0" x2="478.0" y2="650.0" stroke="#1a1a1f" stroke-width="16" stroke-linecap="round"/>
<line x1="448.0" y1="572.0" x2="437.0" y2="613.0" stroke="#1a1a1f" stroke-width="16" stroke-linecap="round"/>
<line x1="437.0" y1="613.0" x2="418.0" y2="650.0" stroke="#1a1a1f" stroke-width="16" stroke-linecap="round"/>
<circle cx="450.0" cy="502.0" r="15" fill="#1a1a1f"/>
<circle cx="448.0" cy="572.0" r="3" fill="#d81e3c"/>
<circle cx="448.0" cy="542.0" r="3" fill="#d81e3c"/>
<circle cx="448.0" cy="520.0" r="3" fill="#d81e3c"/>
<circle cx="450.0" cy="502.0" r="3" fill="#d81e3c"/>
<circle cx="425.0" cy="545.0" r="3" fill="#d81e3c"/>
<circle cx="452.0" cy="528.0" r="3" fill="#d81e3c"/>
<circle cx="466.0" cy="549.0" r="3" fill="#d81e3c"/>
<circle cx="440.0" cy="530.0" r="3" fill="#d81e3c"/>
<circle cx="467.0" cy="610.0" r="3" fill="#d81e3c"/>
<circle cx="478.0" cy="650.0" r="3" fill="#d81e3c"/>
<circle cx="437.0" cy="613.0" r="3" fill="#d81e3c"/>
<circle cx="418.0" cy="650.0" r="3" fill="#d81e3c"/>
<line x1="340" y1="650" x2="560" y2="650" stroke="#c3b8ab" stroke-width="2"/>
<text x="450" y="676" text-anchor="middle" font-family="monospace" font-size="18" fill="#5c5148">windGrab</text>
</g>
<g>
<line x1="756.0" y1="576.0" x2="760.0" y2="546.0" stroke="#1a1a1f" stroke-width="30" stroke-linecap="round"/>
<line x1="760.0" y1="546.0" x2="762.0" y2="524.0" stroke="#1a1a1f" stroke-width="26" stroke-linecap="round"/>
<line x1="762.0" y1="524.0" x2="766.0" y2="507.0" stroke="#1a1a1f" stroke-width="18" stroke-linecap="round"/>
<line x1="762.0" y1="524.0" x2="775.0" y2="556.0" stroke="#1a1a1f" stroke-width="13" stroke-linecap="round"/>
<line x1="775.0" y1="556.0" x2="798.0" y2="534.0" stroke="#1a1a1f" stroke-width="13" stroke-linecap="round"/>
<line x1="762.0" y1="524.0" x2="770.0" y2="557.0" stroke="#1a1a1f" stroke-width="13" stroke-linecap="round"/>
<line x1="770.0" y1="557.0" x2="796.0" y2="538.0" stroke="#1a1a1f" stroke-width="13" stroke-linecap="round"/>
<line x1="756.0" y1="576.0" x2="783.0" y2="609.0" stroke="#1a1a1f" stroke-width="16" stroke-linecap="round"/>
<line x1="783.0" y1="609.0" x2="788.0" y2="650.0" stroke="#1a1a1f" stroke-width="16" stroke-linecap="round"/>
<line x1="756.0" y1="576.0" x2="753.0" y2="619.0" stroke="#1a1a1f" stroke-width="16" stroke-linecap="round"/>
<line x1="753.0" y1="619.0" x2="726.0" y2="650.0" stroke="#1a1a1f" stroke-width="16" stroke-linecap="round"/>
<circle cx="766.0" cy="507.0" r="15" fill="#1a1a1f"/>
<circle cx="756.0" cy="576.0" r="3" fill="#d81e3c"/>
<circle cx="760.0" cy="546.0" r="3" fill="#d81e3c"/>
<circle cx="762.0" cy="524.0" r="3" fill="#d81e3c"/>
<circle cx="766.0" cy="507.0" r="3" fill="#d81e3c"/>
<circle cx="775.0" cy="556.0" r="3" fill="#d81e3c"/>
<circle cx="798.0" cy="534.0" r="3" fill="#d81e3c"/>
<circle cx="770.0" cy="557.0" r="3" fill="#d81e3c"/>
<circle cx="796.0" cy="538.0" r="3" fill="#d81e3c"/>
<circle cx="783.0" cy="609.0" r="3" fill="#d81e3c"/>
<circle cx="788.0" cy="650.0" r="3" fill="#d81e3c"/>
<circle cx="753.0" cy="619.0" r="3" fill="#d81e3c"/>
<circle cx="726.0" cy="650.0" r="3" fill="#d81e3c"/>
<line x1="640" y1="650" x2="860" y2="650" stroke="#c3b8ab" stroke-width="2"/>
<text x="750" y="676" text-anchor="middle" font-family="monospace" font-size="18" fill="#5c5148">hitGrab</text>
</g>
<g>
<line x1="1044.0" y1="576.0" x2="1038.0" y2="547.0" stroke="#1a1a1f" stroke-width="30" stroke-linecap="round"/>
<line x1="1038.0" y1="547.0" x2="1034.0" y2="525.0" stroke="#1a1a1f" stroke-width="26" stroke-linecap="round"/>
<line x1="1034.0" y1="525.0" x2="1025.0" y2="509.0" stroke="#1a1a1f" stroke-width="18" stroke-linecap="round"/>
<line x1="1034.0" y1="525.0" x2="1054.0" y2="552.0" stroke="#1a1a1f" stroke-width="13" stroke-linecap="round"/>
<line x1="1054.0" y1="552.0" x2="1044.0" y2="522.0" stroke="#1a1a1f" stroke-width="13" stroke-linecap="round"/>
<line x1="1034.0" y1="525.0" x2="1039.0" y2="559.0" stroke="#1a1a1f" stroke-width="13" stroke-linecap="round"/>
<line x1="1039.0" y1="559.0" x2="1010.0" y2="546.0" stroke="#1a1a1f" stroke-width="13" stroke-linecap="round"/>
<line x1="1044.0" y1="576.0" x2="1072.0" y2="609.0" stroke="#1a1a1f" stroke-width="16" stroke-linecap="round"/>
<line x1="1072.0" y1="609.0" x2="1072.0" y2="650.0" stroke="#1a1a1f" stroke-width="16" stroke-linecap="round"/>
<line x1="1044.0" y1="576.0" x2="1038.0" y2="619.0" stroke="#1a1a1f" stroke-width="16" stroke-linecap="round"/>
<line x1="1038.0" y1="619.0" x2="1012.0" y2="650.0" stroke="#1a1a1f" stroke-width="16" stroke-linecap="round"/>
<circle cx="1025.0" cy="509.0" r="15" fill="#1a1a1f"/>
<circle cx="1044.0" cy="576.0" r="3" fill="#d81e3c"/>
<circle cx="1038.0" cy="547.0" r="3" fill="#d81e3c"/>
<circle cx="1034.0" cy="525.0" r="3" fill="#d81e3c"/>
<circle cx="1025.0" cy="509.0" r="3" fill="#d81e3c"/>
<circle cx="1054.0" cy="552.0" r="3" fill="#d81e3c"/>
<circle cx="1044.0" cy="522.0" r="3" fill="#d81e3c"/>
<circle cx="1039.0" cy="559.0" r="3" fill="#d81e3c"/>
<circle cx="1010.0" cy="546.0" r="3" fill="#d81e3c"/>
<circle cx="1072.0" cy="609.0" r="3" fill="#d81e3c"/>
<circle cx="1072.0" cy="650.0" r="3" fill="#d81e3c"/>
<circle cx="1038.0" cy="619.0" r="3" fill="#d81e3c"/>
<circle cx="1012.0" cy="650.0" r="3" fill="#d81e3c"/>
<line x1="940" y1="650" x2="1160" y2="650" stroke="#c3b8ab" stroke-width="2"/>
<text x="1050" y="676" text-anchor="middle" font-family="monospace" font-size="18" fill="#5c5148">hurt</text>
</g>
<g>
<line x1="1350.0" y1="606.0" x2="1354.0" y2="576.0" stroke="#1a1a1f" stroke-width="30" stroke-linecap="round"/>
<line x1="1354.0" y1="576.0" x2="1356.0" y2="554.0" stroke="#1a1a1f" stroke-width="26" stroke-linecap="round"/>
<line x1="1356.0" y1="554.0" x2="1363.0" y2="538.0" stroke="#1a1a1f" stroke-width="18" stroke-linecap="round"/>
<line x1="1356.0" y1="554.0" x2="1367.0" y2="587.0" stroke="#1a1a1f" stroke-width="13" stroke-linecap="round"/>
<line x1="1367.0" y1="587.0" x2="1384.0" y2="560.0" stroke="#1a1a1f" stroke-width="13" stroke-linecap="round"/>
<line x1="1356.0" y1="554.0" x2="1361.0" y2="588.0" stroke="#1a1a1f" stroke-width="13" stroke-linecap="round"/>
<line x1="1361.0" y1="588.0" x2="1346.0" y2="560.0" stroke="#1a1a1f" stroke-width="13" stroke-linecap="round"/>
<line x1="1350.0" y1="606.0" x2="1390.0" y2="621.0" stroke="#1a1a1f" stroke-width="16" stroke-linecap="round"/>
<line x1="1390.0" y1="621.0" x2="1362.0" y2="650.0" stroke="#1a1a1f" stroke-width="16" stroke-linecap="round"/>
<line x1="1350.0" y1="606.0" x2="1376.0" y2="640.0" stroke="#1a1a1f" stroke-width="16" stroke-linecap="round"/>
<line x1="1376.0" y1="640.0" x2="1336.0" y2="650.0" stroke="#1a1a1f" stroke-width="16" stroke-linecap="round"/>
<circle cx="1363.0" cy="538.0" r="15" fill="#1a1a1f"/>
<circle cx="1350.0" cy="606.0" r="3" fill="#d81e3c"/>
<circle cx="1354.0" cy="576.0" r="3" fill="#d81e3c"/>
<circle cx="1356.0" cy="554.0" r="3" fill="#d81e3c"/>
<circle cx="1363.0" cy="538.0" r="3" fill="#d81e3c"/>
<circle cx="1367.0" cy="587.0" r="3" fill="#d81e3c"/>
<circle cx="1384.0" cy="560.0" r="3" fill="#d81e3c"/>
<circle cx="1361.0" cy="588.0" r="3" fill="#d81e3c"/>
<circle cx="1346.0" cy="560.0" r="3" fill="#d81e3c"/>
<circle cx="1390.0" cy="621.0" r="3" fill="#d81e3c"/>
<circle cx="1362.0" cy="650.0" r="3" fill="#d81e3c"/>
<circle cx="1376.0" cy="640.0" r="3" fill="#d81e3c"/>
<circle cx="1336.0" cy="650.0" r="3" fill="#d81e3c"/>
<line x1="1240" y1="650" x2="1460" y2="650" stroke="#c3b8ab" stroke-width="2"/>
<text x="1350" y="676" text-anchor="middle" font-family="monospace" font-size="18" fill="#5c5148">getup</text>
</g>
<text x="24" y="770" font-family="monospace" font-size="24" font-weight="700" fill="#111">Как крепится спрайт части тела (пример: предплечье с кистью)</text>
<rect x="60" y="810" width="224" height="128" fill="#fff" stroke="#8c8078" stroke-width="2" stroke-dasharray="6 6"/>
<path d="M 76 874 L 204 874" stroke="#8c8078" stroke-width="2" stroke-dasharray="4 5"/>
<path d="M 76 848 L 194 844 L 256 834 L 262 892 L 198 902 L 76 900 Z" fill="#1a1a1f" opacity="0.85"/>
<circle cx="76" cy="874" r="7" fill="#d81e3c"/>
<circle cx="204" cy="874" r="7" fill="#d81e3c"/>
<text x="76" y="934" text-anchor="middle" font-family="monospace" font-size="18" fill="#d81e3c">A — локоть (16, 64)</text>
<text x="204" y="958" text-anchor="middle" font-family="monospace" font-size="18" fill="#d81e3c">B — запястье (144, 64)</text>
<text x="60" y="978" font-family="monospace" font-size="17" fill="#333">Кость лежит горизонтально: сустав A слева, сустав B справа, оба на середине высоты.</text>
<text x="60" y="1002" font-family="monospace" font-size="17" fill="#333">Кулак выходит ЗА сустав B — под него в спрайте оставлено 64 px справа.</text>
<text x="60" y="1026" font-family="monospace" font-size="17" fill="#333">Код поворачивает спрайт так, чтобы A и B легли на суставы скелета. Больше он ничего не двигает.</text>
</svg>
